<?xml version="1.0" encoding="utf-8"?>
<!-- Generator: Adobe Illustrator 22.0.1, SVG Export Plug-In . SVG Version: 6.00 Build 0)  -->
<svg version="1.1" id="Layer_1" xmlns="http://www.w3.org/2000/svg" xmlns:xlink="http://www.w3.org/1999/xlink" x="0px" y="0px"
	 viewBox="0 0 177.4 350.2" style="enable-background:new 0 0 177.4 350.2;" xml:space="preserve">
<style type="text/css">
	.st0{fill:#3F505A;}
	.st1{fill:#B6C6D0;}
	.st2{fill:#FFFFFF;}
	.st3{fill:#F38843;}
	.st4{fill:#F38533;}
</style>
<g>
	<path class="st0" d="M174.9,100.8H16.3V6.8c0-3.7,3-6.7,6.6-6.7h145.3c3.7,0,6.6,3,6.6,6.7V100.8z"/>
</g>
<g>
	<rect x="22.1" y="14.1" class="st1" width="146.2" height="73.1"/>
</g>
<g>
	<ellipse class="st1" cx="95.8" cy="7.8" rx="2.4" ry="2.4"/>
</g>
<g>
	<path class="st1" d="M82.2,94.7h-27c-0.6,0-1.1-0.5-1.1-1.1v-0.2c0-0.6,0.5-1.1,1.1-1.1h27c0.6,0,1.1,0.5,1.1,1.1v0.2
		C83.3,94.2,82.8,94.7,82.2,94.7z"/>
</g>
<g>
	<path class="st1" d="M136.7,94.7h-27c-0.6,0-1.1-0.5-1.1-1.1v-0.2c0-0.6,0.5-1.1,1.1-1.1h27c0.6,0,1.1,0.5,1.1,1.1v0.2
		C137.8,94.2,137.3,94.7,136.7,94.7z"/>
</g>
<g>
	<rect x="36.7" y="29.7" class="st2" width="115" height="57.3"/>
</g>
<g>
	<rect x="36.7" y="29.7" class="st3" width="115" height="9.5"/>
</g>
<g>
	<rect x="142.3" y="29.7" class="st0" width="9.3" height="9.5"/>
</g>
<g>
	<rect x="52.8" y="47.4" class="st1" width="35.4" height="30.4"/>
</g>
<g>
	<path class="st1" d="M116.6,49.6H95.1c-0.5,0-1-0.4-1-1v-0.2c0-0.5,0.4-1,1-1h21.5c0.5,0,1,0.4,1,1v0.2
		C117.5,49.2,117.1,49.6,116.6,49.6z"/>
</g>
<g>
	<path class="st1" d="M133.5,49.6h-10.8c-0.5,0-1-0.4-1-1v-0.2c0-0.5,0.4-1,1-1h10.8c0.5,0,1,0.4,1,1v0.2
		C134.5,49.2,134,49.6,133.5,49.6z"/>
</g>
<g>
	<path class="st1" d="M107.2,61.1H95.1c-0.5,0-1-0.4-1-1v-0.2c0-0.5,0.4-1,1-1h12.1c0.5,0,1,0.4,1,1v0.2
		C108.2,60.7,107.7,61.1,107.2,61.1z"/>
</g>
<g>
	<path class="st1" d="M133.3,61.1h-20.1c-0.5,0-1-0.4-1-1v-0.2c0-0.5,0.4-1,1-1h20.1c0.5,0,1,0.4,1,1v0.2
		C134.3,60.7,133.9,61.1,133.3,61.1z"/>
</g>
<g>
	<path class="st1" d="M133.4,55.4H95.1c-0.5,0-1-0.4-1-1v-0.2c0-0.5,0.4-1,1-1h38.4c0.5,0,1,0.4,1,1v0.2
		C134.4,54.9,134,55.4,133.4,55.4z"/>
</g>
<g>
	<path class="st1" d="M133.4,66.9H95.1c-0.5,0-1-0.4-1-1v-0.2c0-0.5,0.4-1,1-1h38.4c0.5,0,1,0.4,1,1v0.2
		C134.4,66.4,134,66.9,133.4,66.9z"/>
</g>
<g>
	<rect x="94.4" y="70.8" class="st3" width="26.1" height="6.8"/>
</g>
<g>
	<polygon class="st1" points="126.4,72.1 130.4,82.4 132.5,78.1 136.9,75.5 	"/>
</g>
<g>
	<polygon class="st1" points="138.6,82.6 137.4,83.9 130.9,77.7 132.1,76.4 	"/>
</g>
<g>
	<path class="st1" d="M145.2,36.4L145.2,36.4c-0.2-0.2-0.2-0.5-0.1-0.6l3.3-3.3c0.1-0.2,0.4-0.2,0.5,0l0.1,0.1
		c0.1,0.2,0.1,0.4,0,0.5l-3.3,3.3C145.6,36.5,145.3,36.5,145.2,36.4z"/>
</g>
<g>
	<path class="st1" d="M145.1,32.5L145.1,32.5c0.2-0.2,0.4-0.2,0.6-0.1l3.3,3.3c0.1,0.2,0.1,0.4,0,0.5l-0.1,0.1
		c-0.1,0.2-0.4,0.2-0.5,0l-3.3-3.3C145,32.9,145,32.6,145.1,32.5z"/>
</g>
<g>
	<path class="st3" d="M168.5,194.8H22.9c-3.6,0-6.5-2.9-6.5-6.5v-88.1H175v88.1C175,191.9,172.1,194.8,168.5,194.8z"/>
</g>
<g>
	<rect x="23.5" y="97.9" class="st2" width="19.5" height="4.4"/>
</g>
<g>
	<rect x="146.7" y="97.9" class="st2" width="19.5" height="4.4"/>
</g>
<g>
	<rect x="25.8" y="114.4" class="st0" width="16.1" height="8.8"/>
</g>
<g>
	<rect x="25.8" y="124.6" class="st0" width="12.3" height="8.8"/>
</g>
<g>
	<rect x="39.6" y="124.6" class="st0" width="9.1" height="8.8"/>
</g>
<g>
	<rect x="50.3" y="124.6" class="st0" width="9.1" height="8.8"/>
</g>
<g>
	<rect x="60.9" y="124.6" class="st0" width="9.1" height="8.8"/>
</g>
<g>
	<rect x="71.6" y="124.6" class="st0" width="9.1" height="8.8"/>
</g>
<g>
	<rect x="82.3" y="124.6" class="st0" width="9.1" height="8.8"/>
</g>
<g>
	<rect x="92.9" y="124.6" class="st0" width="9.1" height="8.8"/>
</g>
<g>
	<rect x="103.6" y="124.6" class="st0" width="9.1" height="8.8"/>
</g>
<g>
	<rect x="114.3" y="124.6" class="st0" width="9.1" height="8.8"/>
</g>
<g>
	<rect x="124.9" y="124.6" class="st0" width="9.1" height="8.8"/>
</g>
<g>
	<rect x="135.6" y="124.6" class="st0" width="9.1" height="8.8"/>
</g>
<g>
	<rect x="146.3" y="124.6" class="st0" width="9.1" height="8.8"/>
</g>
<g>
	<rect x="157" y="124.6" class="st0" width="9.1" height="8.8"/>
</g>
<g>
	<rect x="135.6" y="145.2" class="st0" width="9.1" height="8.8"/>
</g>
<g>
	<rect x="146.3" y="145.2" class="st0" width="9.1" height="8.8"/>
</g>
<g>
	<rect x="157" y="145.2" class="st0" width="9.1" height="8.8"/>
</g>
<g>
	<rect x="25.8" y="134.9" class="st0" width="19.6" height="8.8"/>
</g>
<g>
	<rect x="46.9" y="134.9" class="st0" width="9.1" height="8.8"/>
</g>
<g>
	<rect x="57.6" y="134.9" class="st0" width="9.1" height="8.8"/>
</g>
<g>
	<rect x="68.2" y="134.9" class="st0" width="9.1" height="8.8"/>
</g>
<g>
	<rect x="57.5" y="145.2" class="st0" width="76.5" height="8.8"/>
</g>
<g>
	<rect x="78.9" y="134.9" class="st0" width="9.1" height="8.8"/>
</g>
<g>
	<rect x="25.8" y="145.2" class="st0" width="9.1" height="8.8"/>
</g>
<g>
	<rect x="36.3" y="145.2" class="st0" width="9.1" height="8.8"/>
</g>
<g>
	<rect x="46.9" y="145.2" class="st0" width="9.1" height="8.8"/>
</g>
<g>
	<rect x="89.6" y="134.9" class="st0" width="9.1" height="8.8"/>
</g>
<g>
	<rect x="100.2" y="134.9" class="st0" width="9.1" height="8.8"/>
</g>
<g>
	<rect x="110.9" y="134.9" class="st0" width="9.1" height="8.8"/>
</g>
<g>
	<rect x="121.6" y="134.9" class="st0" width="9.1" height="8.8"/>
</g>
<g>
	<rect x="132.3" y="134.9" class="st0" width="9.1" height="8.8"/>
</g>
<g>
	<rect x="142.9" y="134.9" class="st0" width="9.1" height="8.8"/>
</g>
<g>
	<rect x="153.6" y="134.9" class="st0" width="12.4" height="8.8"/>
</g>
<g>
	<rect x="43.6" y="114.4" class="st0" width="16.1" height="8.8"/>
</g>
<g>
	<rect x="61.2" y="114.4" class="st0" width="16.1" height="8.8"/>
</g>
<g>
	<rect x="79" y="114.4" class="st0" width="16.1" height="8.8"/>
</g>
<g>
	<rect x="96.6" y="114.4" class="st0" width="16.1" height="8.8"/>
</g>
<g>
	<rect x="114.5" y="114.4" class="st0" width="16.1" height="8.8"/>
</g>
<g>
	<rect x="132" y="114.4" class="st0" width="16.1" height="8.8"/>
</g>
<g>
	<rect x="149.9" y="114.4" class="st0" width="16.1" height="8.8"/>
</g>
<path class="st0" d="M112.7,161H78.9c-1.6,0-2.9,1.3-2.9,3v19.2c0,1.6,1.3,3,2.9,3h16.4v-12.4c0-0.3,0.3-0.6,0.6-0.6H96
	c0.3,0,0.6,0.3,0.6,0.6v12.4h16.1c1.6,0,2.9-1.3,2.9-3V164C115.6,162.3,114.3,161,112.7,161z"/>
<g>
	<path class="st1" d="M87,307.2h-2.2v-30.4c0-6.7,5.4-12.2,12.1-12.2h60.7c9.5,0,17.3-7.8,17.3-17.5c0-9.6-7.8-17.5-17.3-17.5H16.4
		c-8.9,0-16.2-7.3-16.2-16.4v-59.6c0-8.1,6.5-14.7,14.6-14.7h1.4v2.2h-1.4c-6.8,0-12.4,5.6-12.4,12.5v59.6c0,7.8,6.3,14.2,14,14.2
		h141.3c10.8,0,19.5,8.8,19.5,19.7c0,10.9-8.8,19.7-19.5,19.7H96.9c-5.5,0-9.9,4.5-9.9,10V307.2z"/>
</g>
<g>
	<g>
		<path class="st4" d="M90.8,350h-9.7c-6.5,0-11.8-5.3-11.8-11.8v-31.5c0-3,2.5-5.5,5.5-5.5h22.3c3,0,5.5,2.5,5.5,5.5v31.5
			C102.6,344.7,97.3,350,90.8,350z"/>
	</g>
</g>
<g>
	<path class="st0" d="M102.6,318.1v-10.9c0-3.4-2.7-6.1-6-6.1H75.3c-3.3,0-6,2.7-6,6.1v10.9H102.6z"/>
</g>
<g>
	<path class="st4" d="M86,336.2h-0.1c-0.3,0-0.6-0.3-0.6-0.6v-28.2c0-0.3,0.3-0.6,0.6-0.6H86c0.3,0,0.6,0.3,0.6,0.6v28.2
		C86.6,335.9,86.4,336.2,86,336.2z"/>
</g>
<g>
	<path class="st1" d="M86.3,323.3h-0.4c-1.1,0-2-0.9-2-2v-6.9c0-1.1,0.9-2,2-2h0.4c1.1,0,2,0.9,2,2v6.9
		C88.3,322.4,87.4,323.3,86.3,323.3z"/>
</g>
<g>
	<g>
		<path class="st2" d="M80.3,59.6v-1.6c0-0.5-0.4-1-1-1H62.2c-0.5,0-1,0.4-1,1v1.6H80.3z"/>
	</g>
	<g>
		<path class="st2" d="M61.2,62.5v6.4c0,0.6,0.5,1.2,1.1,1.2h16.8c0.6,0,1.1-0.5,1.1-1.2v-6.4H61.2z"/>
	</g>
</g>
<g>
	<path class="st0" d="M72.6,65.6H64c-0.3,0-0.5-0.2-0.5-0.5V65c0-0.3,0.2-0.5,0.5-0.5h8.6c0.3,0,0.5,0.2,0.5,0.5v0.1
		C73.1,65.4,72.9,65.6,72.6,65.6z"/>
</g>
<g>
	<path class="st0" d="M72.6,68.1H64c-0.3,0-0.5-0.2-0.5-0.5v-0.1c0-0.3,0.2-0.5,0.5-0.5h8.6c0.3,0,0.5,0.2,0.5,0.5v0.1
		C73.1,67.8,72.9,68.1,72.6,68.1z"/>
</g>
<g>
	<rect x="61.2" y="59.4" class="st0" width="19.1" height="3.5"/>
</g>
<g>
	<path class="st1" d="M77.7,68.1h-2.9c-0.2,0-0.3-0.1-0.3-0.3v-2.9c0-0.2,0.1-0.3,0.3-0.3h2.9c0.2,0,0.3,0.1,0.3,0.3v2.9
		C78.1,67.9,77.9,68.1,77.7,68.1z"/>
</g>
</svg>
