<?xml version="1.0" encoding="utf-8"?>
<!-- Generator: Adobe Illustrator 22.0.1, SVG Export Plug-In . SVG Version: 6.00 Build 0)  -->
<svg version="1.1" id="Layer_1" xmlns="http://www.w3.org/2000/svg" xmlns:xlink="http://www.w3.org/1999/xlink" x="0px" y="0px"
	 viewBox="0 0 143.4 350.2" style="enable-background:new 0 0 143.4 350.2;" xml:space="preserve">
<style type="text/css">
	.st0{fill:#3F505A;}
	.st1{fill:#F38843;}
	.st2{fill:#B7C7D2;}
	.st3{fill:#FFFFFF;}
	.st4{fill:#3D505C;}
</style>
<rect x="20.8" y="71.5" class="st0" width="100.2" height="4.6"/>
<path class="st0" d="M126.5,72.5H17.1c-3,0-5.3-2.4-5.3-5.3V5.9c0-3.2,2.6-5.8,5.8-5.8H126c3.2,0,5.8,2.6,5.8,5.8v61.2
	C131.8,70.1,129.4,72.5,126.5,72.5z"/>
<path class="st1" d="M131.8,343.3H11.8V80.8c0-2.8,2.3-5,5-5h110c2.8,0,5,2.3,5,5V343.3z"/>
<rect x="21.3" y="11" class="st2" width="100.1" height="50.5"/>
<path class="st0" d="M115.3,159.8h-88c-3.3,0-6.1-2.7-6.1-6V93.4c0-3.3,2.7-6,6.1-6h88c3.3,0,6.1,2.7,6.1,6v60.4
	C121.4,157.1,118.6,159.8,115.3,159.8z"/>
<path class="st3" d="M111.2,155.5H31c-3.1,0-5.5-2.4-5.5-5.3V97.1c0-2.9,2.5-5.3,5.5-5.3h80.2c3.1,0,5.5,2.4,5.5,5.3v53.1
	C116.7,153.2,114.2,155.5,111.2,155.5z"/>
<path class="st3" d="M106.6,24.7H35.9c-1,0-1.7-0.8-1.7-1.7v0c0-1,0.8-1.7,1.7-1.7h70.6c1,0,1.7,0.8,1.7,1.7v0
	C108.3,23.9,107.5,24.7,106.6,24.7z"/>
<rect x="34.2" y="30.8" class="st3" width="29.2" height="19.6"/>
<rect x="70.1" y="30.8" class="st3" width="37.8" height="19.6"/>
<path class="st0" d="M143.4,350.2H0.1v-1.4c0-5.2,4.3-9.5,9.5-9.5h124.4c5.2,0,9.5,4.3,9.5,9.5V350.2z"/>
<rect x="49.8" y="137.9" class="st1" width="41" height="10.7"/>
<rect x="37.2" y="105.4" class="st2" width="24.2" height="23.5"/>
<path class="st2" d="M89,108.1H70c-0.7,0-1.3-0.6-1.3-1.3l0,0c0-0.7,0.6-1.3,1.3-1.3h19c0.7,0,1.3,0.6,1.3,1.3l0,0
	C90.3,107.5,89.7,108.1,89,108.1z"/>
<path class="st2" d="M104.6,108.1h-9.2c-0.7,0-1.3-0.6-1.3-1.3l0,0c0-0.7,0.6-1.3,1.3-1.3h9.2c0.7,0,1.3,0.6,1.3,1.3l0,0
	C105.9,107.5,105.3,108.1,104.6,108.1z"/>
<path class="st2" d="M80.3,121.9H70c-0.7,0-1.3-0.6-1.3-1.3l0,0c0-0.7,0.6-1.3,1.3-1.3h10.4c0.7,0,1.3,0.6,1.3,1.3l0,0
	C81.7,121.3,81.1,121.9,80.3,121.9z"/>
<path class="st2" d="M104.5,121.9H86.7c-0.7,0-1.3-0.6-1.3-1.3l0,0c0-0.7,0.6-1.3,1.3-1.3h17.8c0.7,0,1.3,0.6,1.3,1.3l0,0
	C105.8,121.3,105.2,121.9,104.5,121.9z"/>
<path class="st2" d="M104.5,115H70c-0.7,0-1.3-0.6-1.3-1.3l0,0c0-0.7,0.6-1.3,1.3-1.3h34.6c0.7,0,1.3,0.6,1.3,1.3l0,0
	C105.9,114.4,105.3,115,104.5,115z"/>
<path class="st2" d="M104.5,128.9H70c-0.7,0-1.3-0.6-1.3-1.3l0,0c0-0.7,0.6-1.3,1.3-1.3h34.6c0.7,0,1.3,0.6,1.3,1.3l0,0
	C105.9,128.3,105.3,128.9,104.5,128.9z"/>
<path class="st3" d="M115.8,202c1.8,0,3.3,1.5,3.3,3.3v120.1c0,1.8-1.5,3.3-3.3,3.3H26.7c-1.8,0-3.3-1.5-3.3-3.3V205.3
	c0-1.8,1.5-3.3,3.3-3.3H115.8 M115.8,199.7H26.7c-3.1,0-5.6,2.5-5.6,5.6v120.1c0,3.1,2.5,5.6,5.6,5.6h89.1c3.1,0,5.6-2.5,5.6-5.6
	V205.3C121.4,202.2,118.9,199.7,115.8,199.7L115.8,199.7z"/>
<path class="st0" d="M23.9,187.2h33.4c1.5,0,2.7-1.2,2.7-2.7v-12.8c0-1.5-1.2-2.7-2.7-2.7H23.9c-1.5,0-2.7,1.2-2.7,2.7v12.8
	C21.2,186,22.4,187.2,23.9,187.2z"/>
<path class="st2" d="M52.4,182.6H28.7c-2.5,0-4.5-2-4.5-4.5v0c0-2.5,2-4.5,4.5-4.5h23.8c2.5,0,4.5,2,4.5,4.5v0
	C56.9,180.6,54.9,182.6,52.4,182.6z"/>
<path class="st4" d="M53.2,179.3H27.1c-0.6,0-1-0.5-1-1l0,0c0-0.6,0.5-1,1-1h26.1c0.6,0,1,0.5,1,1l0,0
	C54.2,178.8,53.7,179.3,53.2,179.3z"/>
<path class="st0" d="M101.2,187.2h16.4c1.7,0,3.1-1.4,3.1-3.1v-11.9c0-1.7-1.4-3.1-3.1-3.1h-16.4c-1.7,0-3.1,1.4-3.1,3.1v11.9
	C98.1,185.8,99.5,187.2,101.2,187.2z"/>
<path class="st2" d="M116,179.4h-13.1c-0.5,0-0.9-0.4-0.9-0.9v-0.4c0-0.5,0.4-0.9,0.9-0.9H116c0.5,0,0.9,0.4,0.9,0.9v0.4
	C116.9,179,116.5,179.4,116,179.4z"/>
<path class="st3" d="M50.3,188.4v-11.1H30.7V190l0,6c0,0.3,0.4,0.5,0.6,0.3l1.4-1.1c0.1-0.1,0.3-0.1,0.5,0l2.1,1.6
	c0.1,0.1,0.3,0.1,0.5,0l2.1-1.6c0.1-0.1,0.3-0.1,0.5,0l2.1,1.6c0.1,0.1,0.3,0.1,0.5,0l2.1-1.6c0.1-0.1,0.3-0.1,0.5,0l2.1,1.6
	c0.1,0.1,0.3,0.1,0.5,0l2.1-1.6c0.1-0.1,0.3-0.1,0.5,0l1.4,1.1c0.2,0.2,0.6,0,0.6-0.3L50.3,188.4L50.3,188.4z"/>
</svg>
