<?xml version="1.0" encoding="utf-8"?>
<!-- Generator: Adobe Illustrator 23.0.1, SVG Export Plug-In . SVG Version: 6.00 Build 0)  -->
<svg version="1.1" id="Слой_1" xmlns="http://www.w3.org/2000/svg" xmlns:xlink="http://www.w3.org/1999/xlink" x="0px" y="0px"
	 viewBox="0 0 750.5 168.7" style="enable-background:new 0 0 750.5 168.7;" xml:space="preserve">
<style type="text/css">
	.st0{fill:url(#SVGID_1_);}
	.st1{fill:#29ABE2;}
	.st2{fill:url(#SVGID_2_);}
	.st3{fill:url(#SVGID_3_);}
	.st4{fill:url(#SVGID_4_);}
	.st5{fill:url(#SVGID_5_);}
	.st6{fill:#ED2528;}
	.st7{opacity:0.51;fill:url(#SVGID_6_);enable-background:new    ;}
	.st8{fill:url(#SVGID_7_);}
	.st9{fill:none;stroke:#ED2528;stroke-width:0.5878;stroke-miterlimit:1;}
	.st10{fill:#CF3327;}
	.st11{fill:#00691A;}
	.st12{fill:#004117;}
	.st13{fill:#353535;}
</style>
<g id="Слой_5">
</g>
<g>
	<g id="Слой_2_1_">
		
			<linearGradient id="SVGID_1_" gradientUnits="userSpaceOnUse" x1="316.4" y1="347.5941" x2="383.4" y2="347.5941" gradientTransform="matrix(1 0 0 1 0 -208)">
			<stop  offset="0" style="stop-color:#365C39"/>
			<stop  offset="0.3505" style="stop-color:#336330"/>
			<stop  offset="0.9325" style="stop-color:#2C7816"/>
			<stop  offset="0.9946" style="stop-color:#2B7A13"/>
		</linearGradient>
		<path class="st0" d="M383.4,145.5c0,0-35.5,15-67-15.5C316.4,130.1,359.3,131,383.4,145.5z"/>
		<path class="st1" d="M333.7,136.4"/>
	</g>
	<g id="Слой_3">
		
			<linearGradient id="SVGID_2_" gradientUnits="userSpaceOnUse" x1="297.9" y1="317.8" x2="340.374" y2="317.8" gradientTransform="matrix(1 0 0 1 0 -208)">
			<stop  offset="0" style="stop-color:#368D39"/>
			<stop  offset="0.2431" style="stop-color:#348433"/>
			<stop  offset="0.6463" style="stop-color:#306A24"/>
			<stop  offset="0.9946" style="stop-color:#2B4F13"/>
		</linearGradient>
		<path class="st2" d="M297.9,91.5c0,0,1.2,20.3,16.6,36.6c0,0,15.9-14.4,25.8-19.6C340.3,108.5,320,96.6,297.9,91.5z"/>
	</g>
	<g id="Слой_4">
		
			<linearGradient id="SVGID_3_" gradientUnits="userSpaceOnUse" x1="297.4" y1="304.8953" x2="359.2" y2="304.8953" gradientTransform="matrix(1 0 0 1 0 -208)">
			<stop  offset="0" style="stop-color:#366E39"/>
			<stop  offset="0.2694" style="stop-color:#326C35"/>
			<stop  offset="0.5417" style="stop-color:#266729"/>
			<stop  offset="0.8144" style="stop-color:#125F15"/>
			<stop  offset="0.9946" style="stop-color:#005703"/>
		</linearGradient>
		<path class="st3" d="M297.4,86.7l0.1,2.5c0,0,17.4,2.3,45.3,17.9c0,0,12.6-6.9,16.4-8.4C359.2,98.8,327.6,86.3,297.4,86.7z"/>
	</g>
	<g id="Слой_6">
		
			<linearGradient id="SVGID_4_" gradientUnits="userSpaceOnUse" x1="318.1" y1="334.5042" x2="417.5" y2="334.5042" gradientTransform="matrix(1 0 0 1 0 -208)">
			<stop  offset="0" style="stop-color:#366E39"/>
			<stop  offset="0.2123" style="stop-color:#3B7439"/>
			<stop  offset="0.489" style="stop-color:#488439"/>
			<stop  offset="0.8001" style="stop-color:#5E9F38"/>
			<stop  offset="1" style="stop-color:#6FB438"/>
		</linearGradient>
		<path class="st4" d="M318.1,127.8c0,0,16.1-13.7,25-18.4c0,0,44.2-4,74.4,8.8c0,0-9.4,17.4-30.4,26
			C387,144.1,356.8,127.3,318.1,127.8z"/>
	</g>
	<g id="Слой_7">
		
			<linearGradient id="SVGID_5_" gradientUnits="userSpaceOnUse" x1="348.4" y1="309.5" x2="427.1" y2="309.5" gradientTransform="matrix(1 0 0 1 0 -208)">
			<stop  offset="0" style="stop-color:#369039"/>
			<stop  offset="0.2051" style="stop-color:#3C9339"/>
			<stop  offset="0.4725" style="stop-color:#4C9B39"/>
			<stop  offset="0.773" style="stop-color:#67A838"/>
			<stop  offset="1" style="stop-color:#80B438"/>
		</linearGradient>
		<path class="st5" d="M348.4,106.6c0,0,28.6-17.9,78.7-19.8c0,0-0.4,16.8-8.4,29.4C418.7,116.2,395.9,104.5,348.4,106.6z"/>
	</g>
	<g id="Слой_8">
		<g>
			<path class="st6" d="M427.1,83.5c0-4.6-0.5-9.1-1.4-13.4c-1.4,0.6-2.9,0.9-4.5,0.9c-6.7,0-12-5.4-12-12c0-5,3-9.2,7.3-11.1
				c-4.9-7.4-11.3-13.9-18.8-18.8c-1.9,4.1-6.1,6.9-10.9,6.9c-6.7,0-12-5.4-12-12c0-1.4,0.3-2.8,0.7-4.1c-4.3-0.9-8.7-1.4-13.2-1.4
				c-4.7,0-9.3,0.5-13.7,1.4c0.5,1.2,0.6,2.6,0.6,4c0,6.7-5.4,12-12,12c-4.7,0-8.8-2.7-10.8-6.7c-7.4,4.9-13.8,11.3-18.7,18.8
				c3.9,2,6.6,6,6.6,10.8c0,6.7-5.4,12-12,12c-1.3,0-2.5-0.2-3.6-0.6c-0.8,4.2-1.3,8.6-1.3,13.1c0,0.6,0,1.1,0,1.7
				c0.7,0,20.3,0.1,30,2.8v-0.3c-0.2-1.4-0.3-2.8-0.3-4.2c0-19.4,15.7-35.2,35.2-35.2s35.2,15.7,35.2,35.2c0,1.4-0.1,2.9-0.3,4.2
				c7-1.1,13.1-2.1,30-2.9C427.1,84.2,427.1,84,427.1,83.5z"/>
			
				<linearGradient id="SVGID_6_" gradientUnits="userSpaceOnUse" x1="362.3" y1="295.9678" x2="362.3" y2="226.5349" gradientTransform="matrix(1 0 0 1 0 -208)">
				<stop  offset="0" style="stop-color:#0E0E0E"/>
				<stop  offset="0.5" style="stop-color:#000000"/>
				<stop  offset="0.5213" style="stop-color:#010101"/>
				<stop  offset="0.7262" style="stop-color:#0B0B0B"/>
				<stop  offset="1" style="stop-color:#0E0E0E"/>
			</linearGradient>
			<path class="st7" d="M427.1,83.5c0-4.6-0.5-9.1-1.4-13.4c-1.4,0.6-2.9,0.9-4.5,0.9c-6.7,0-12-5.4-12-12c0-5,3-9.2,7.3-11.1
				c-4.9-7.4-11.3-13.9-18.8-18.8c-1.9,4.1-6.1,6.9-10.9,6.9c-6.7,0-12-5.4-12-12c0-1.4,0.3-2.8,0.7-4.1c-4.3-0.9-8.7-1.4-13.2-1.4
				c-4.7,0-9.3,0.5-13.7,1.4c0.5,1.2,0.6,2.6,0.6,4c0,6.7-5.4,12-12,12c-4.7,0-8.8-2.7-10.8-6.7c-7.4,4.9-13.8,11.3-18.7,18.8
				c3.9,2,6.6,6,6.6,10.8c0,6.7-5.4,12-12,12c-1.3,0-2.5-0.2-3.6-0.6c-0.8,4.2-1.3,8.6-1.3,13.1c0,0.6,0,1.1,0,1.7
				c0.7,0,20.3,0.1,30,2.8v-0.3c-0.2-1.4-0.3-2.8-0.3-4.2c0-19.4,15.7-35.2,35.2-35.2s35.2,15.7,35.2,35.2c0,1.4-0.1,2.9-0.3,4.2
				c7-1.1,13.1-2.1,30-2.9C427.1,84.2,427.1,84,427.1,83.5z"/>
			
				<linearGradient id="SVGID_7_" gradientUnits="userSpaceOnUse" x1="358.8527" y1="226.5892" x2="362.5648" y2="297.4208" gradientTransform="matrix(1 0 0 1 0 -208)">
				<stop  offset="0" style="stop-color:#F15A24"/>
				<stop  offset="1" style="stop-color:#C1272D"/>
			</linearGradient>
			<path class="st8" d="M427.1,83.5c0-4.6-0.5-9.1-1.4-13.4c-1.4,0.6-2.9,0.9-4.5,0.9c-6.7,0-12-5.4-12-12c0-5,3-9.2,7.3-11.1
				c-4.9-7.4-11.3-13.9-18.8-18.8c-1.9,4.1-6.1,6.9-10.9,6.9c-6.7,0-12-5.4-12-12c0-1.4,0.3-2.8,0.7-4.1c-4.3-0.9-8.7-1.4-13.2-1.4
				c-4.7,0-9.3,0.5-13.7,1.4c0.5,1.2,0.6,2.6,0.6,4c0,6.7-5.4,12-12,12c-4.7,0-8.8-2.7-10.8-6.7c-7.4,4.9-13.8,11.3-18.7,18.8
				c3.9,2,6.6,6,6.6,10.8c0,6.7-5.4,12-12,12c-1.3,0-2.5-0.2-3.6-0.6c-0.8,4.2-1.3,8.6-1.3,13.1c0,0.6,0,1.1,0,1.7
				c0.7,0,20.3,0.1,30,2.8v-0.3c-0.2-1.4-0.3-2.8-0.3-4.2c0-19.4,15.7-35.2,35.2-35.2s35.2,15.7,35.2,35.2c0,1.4-0.1,2.9-0.3,4.2
				c7-1.1,13.1-2.1,30-2.9C427.1,84.2,427.1,84,427.1,83.5z"/>
			<path class="st9" d="M427.1,83.5c0-4.6-0.5-9.1-1.4-13.4c-1.4,0.6-2.9,0.9-4.5,0.9c-6.7,0-12-5.4-12-12c0-5,3-9.2,7.3-11.1
				c-4.9-7.4-11.3-13.9-18.8-18.8c-1.9,4.1-6.1,6.9-10.9,6.9c-6.7,0-12-5.4-12-12c0-1.4,0.3-2.8,0.7-4.1c-4.3-0.9-8.7-1.4-13.2-1.4
				c-4.7,0-9.3,0.5-13.7,1.4c0.5,1.2,0.6,2.6,0.6,4c0,6.7-5.4,12-12,12c-4.7,0-8.8-2.7-10.8-6.7c-7.4,4.9-13.8,11.3-18.7,18.8
				c3.9,2,6.6,6,6.6,10.8c0,6.7-5.4,12-12,12c-1.3,0-2.5-0.2-3.6-0.6c-0.8,4.2-1.3,8.6-1.3,13.1c0,0.6,0,1.1,0,1.7
				c0.7,0,20.3,0.1,30,2.8v-0.3c-0.2-1.4-0.3-2.8-0.3-4.2c0-19.4,15.7-35.2,35.2-35.2s35.2,15.7,35.2,35.2c0,1.4-0.1,2.9-0.3,4.2
				c7-1.1,13.1-2.1,30-2.9C427.1,84.2,427.1,84,427.1,83.5z"/>
		</g>
	</g>
	<g id="Слой_9">
		<path class="st10" d="M301.6,142.6c-0.4,0-0.8-0.1-1-0.5c-14.8-15.7-23-36.3-23-57.8c0-46.5,37.8-84.3,84.3-84.3
			c21.6,0,42.2,8.2,57.8,23c0.6,0.5,0.6,1.4,0.1,2s-1.4,0.6-2,0.1c-15.2-14.3-35-22.2-55.9-22.2c-44.9,0-81.5,36.5-81.5,81.5
			c0,20.9,7.9,40.7,22.2,55.9c0.5,0.6,0.5,1.5-0.1,2C302.3,142.5,301.9,142.6,301.6,142.6z"/>
		<path class="st11" d="M362.1,168.7c-19.9,0-39.2-7.1-54.3-19.9c-0.6-0.5-0.6-1.4-0.2-2c0.5-0.6,1.4-0.6,2-0.2
			c14.6,12.4,33.3,19.2,52.5,19.2c44.9,0,81.5-36.5,81.5-81.5c0-19.9-7.3-39.1-20.4-53.9c-0.5-0.6-0.5-1.5,0.1-2s1.5-0.5,2,0.1
			c13.6,15.4,21.1,35.2,21.1,55.8C446.4,130.9,408.6,168.7,362.1,168.7z"/>
	</g>
	<g id="Слой_10">
		<path class="st12" d="M362.1,58.6c2.3,2.6,7.4,8.9,9.7,15.2c1.1,2.9,0.6,6-1.3,8.7c-2,2.8-5.5,4.8-8.4,4.8c-2.8,0-6-1.8-8-4.6
			c-1.2-1.6-3-4.9-1.6-8.9C354.2,68.1,359.7,61.3,362.1,58.6 M362,56.4c0,0-8.7,9.5-11.1,16.9c-2.7,8.1,5,15.4,11.1,15.4
			c6.2,0,14.1-7.2,11.1-15.4C370.1,64.8,362,56.4,362,56.4L362,56.4z"/>
		<polygon class="st12" points="362.1,65.3 361.2,91.8 363.1,91.8 		"/>
		<polygon class="st12" points="362.2,81 369.3,76.6 362.1,81.7 		"/>
		<polygon class="st12" points="362.2,81 354.7,76.8 362.1,81.7 		"/>
		<polygon class="st12" points="362.1,74.4 366.9,71.3 362.1,73.8 357.4,71.3 		"/>
	</g>
	<g>
		<path class="st13" d="M55.2,28.1l42,97.5H85.4l-14-32.8H25.1l-13.6,32.8H0l42.1-97.5L55.2,28.1L55.2,28.1z M28.9,83.5h38.5
			L49.3,39.7h-2.1L28.9,83.5z"/>
		<path class="st13" d="M172.2,28.1v9.6h-48.7v87.9h-11.2V28.1L172.2,28.1L172.2,28.1z"/>
		<path class="st13" d="M221.7,28.1c21.4,0,37.9,10.8,37.9,30c0,19.6-16,30.6-37.9,30.6H200v36.9h-11.2V28.1L221.7,28.1L221.7,28.1z
			 M199.9,79h19.5c18.6,0,28.9-6,28.9-20.8c0-13.8-10.3-20.4-28.9-20.4h-19.5V79z"/>
	</g>
	<g>
		<path class="st13" d="M543.6,28.2v97.5h-11.3V37.8h-54.2v87.9h-11.2V28.2H543.6z"/>
		<path class="st13" d="M597.6,28.2c21.4,0,37.9,10.8,37.9,30c0,19.6-16,30.6-37.9,30.6h-21.7v36.9h-11.3V28.2H597.6z M575.9,79
			h19.5c18.6,0,28.9-6,28.9-20.8c0-13.8-10.3-20.4-28.9-20.4h-19.5V79z"/>
		<path class="st13" d="M698.3,127.6c-29.7,0-52.2-20.4-52.2-50.7c0-30.3,22.8-50.7,52.2-50.7c29.7,0,52.2,20.4,52.2,50.7
			C750.5,107.2,727.7,127.6,698.3,127.6z M698.3,118c22,0,40.9-15.4,40.9-41.1c0-25.6-19-41.1-40.9-41.1c-22,0-40.9,15.5-40.9,41.1
			C657.3,102.5,676.4,118,698.3,118z"/>
	</g>
</g>
</svg>
