<?xml version="1.0" encoding="utf-8"?>
<!-- Generator: Adobe Illustrator 23.0.1, SVG Export Plug-In . SVG Version: 6.00 Build 0)  -->
<svg version="1.1" id="Слой_1" xmlns="http://www.w3.org/2000/svg" xmlns:xlink="http://www.w3.org/1999/xlink" x="0px" y="0px"
	 viewBox="0 0 260.8 260.5" style="enable-background:new 0 0 260.8 260.5;" xml:space="preserve">
<style type="text/css">
	.st0{fill:url(#SVGID_1_);}
	.st1{fill:#29ABE2;}
	.st2{fill:url(#SVGID_2_);}
	.st3{fill:url(#SVGID_3_);}
	.st4{fill:url(#SVGID_4_);}
	.st5{fill:url(#SVGID_5_);}
	.st6{fill:#ED2528;}
	.st7{opacity:0.51;fill:url(#SVGID_6_);enable-background:new    ;}
	.st8{fill:url(#SVGID_7_);}
	.st9{fill:none;stroke:#ED2528;stroke-width:0.5878;stroke-miterlimit:1;}
	.st10{fill:#CF3327;}
	.st11{fill:#00691A;}
	.st12{fill:#004117;}
</style>
<image style="display:none;overflow:visible;enable-background:new    ;" width="440" height="413" xlink:href="EFDF9913.jpeg"  transform="matrix(0.9975 0 0 0.9975 -267.8674 -49.8409)">
</image>
<g>
	
		<linearGradient id="SVGID_1_" gradientUnits="userSpaceOnUse" x1="60" y1="96.0119" x2="163.5" y2="96.0119" gradientTransform="matrix(1 0 0 -1 0 311.6)">
		<stop  offset="0" style="stop-color:#365C39"/>
		<stop  offset="0.3505" style="stop-color:#336330"/>
		<stop  offset="0.9325" style="stop-color:#2C7816"/>
		<stop  offset="0.9946" style="stop-color:#2B7A13"/>
	</linearGradient>
	<path class="st0" d="M163.5,224.7c0,0-54.8,23.1-103.5-23.9C60,200.8,126.3,202.2,163.5,224.7z"/>
	<path class="st1" d="M86.7,210.5"/>
</g>
<g id="Слой_3">
	
		<linearGradient id="SVGID_2_" gradientUnits="userSpaceOnUse" x1="31.4" y1="142.15" x2="96.9771" y2="142.15" gradientTransform="matrix(1 0 0 -1 0 311.6)">
		<stop  offset="0" style="stop-color:#368D39"/>
		<stop  offset="0.2431" style="stop-color:#348433"/>
		<stop  offset="0.6463" style="stop-color:#306A24"/>
		<stop  offset="0.9946" style="stop-color:#2B4F13"/>
	</linearGradient>
	<path class="st2" d="M31.4,141.2c0,0,1.9,31.3,25.7,56.5c0,0,24.5-22.3,39.8-30.3C96.9,167.5,65.6,149.2,31.4,141.2z"/>
</g>
<g id="Слой_4">
	
		<linearGradient id="SVGID_3_" gradientUnits="userSpaceOnUse" x1="30.7" y1="161.9593" x2="126.1" y2="161.9593" gradientTransform="matrix(1 0 0 -1 0 311.6)">
		<stop  offset="0" style="stop-color:#366E39"/>
		<stop  offset="0.2694" style="stop-color:#326C35"/>
		<stop  offset="0.5417" style="stop-color:#266729"/>
		<stop  offset="0.8144" style="stop-color:#125F15"/>
		<stop  offset="0.9946" style="stop-color:#005703"/>
	</linearGradient>
	<path class="st3" d="M30.7,133.9l0.2,3.9c0,0,26.9,3.5,69.9,27.6c0,0,19.4-10.7,25.3-12.9C126.1,152.5,77.3,133.2,30.7,133.9z"/>
</g>
<g id="Слой_5">
</g>
<g id="Слой_6">
	
		<linearGradient id="SVGID_4_" gradientUnits="userSpaceOnUse" x1="62.7" y1="116.2961" x2="216.1" y2="116.2961" gradientTransform="matrix(1 0 0 -1 0 311.6)">
		<stop  offset="0" style="stop-color:#366E39"/>
		<stop  offset="0.2123" style="stop-color:#3B7439"/>
		<stop  offset="0.489" style="stop-color:#488439"/>
		<stop  offset="0.8001" style="stop-color:#5E9F38"/>
		<stop  offset="1" style="stop-color:#6FB438"/>
	</linearGradient>
	<path class="st4" d="M62.7,197.3c0,0,24.8-21.1,38.6-28.4c0,0,68.2-6.1,114.8,13.6c0,0-14.5,26.9-47,40.1
		C169.1,222.5,122.4,196.6,62.7,197.3z"/>
</g>
<g id="Слой_7">
	
		<linearGradient id="SVGID_5_" gradientUnits="userSpaceOnUse" x1="109.4" y1="154.9998" x2="230.9" y2="154.9998" gradientTransform="matrix(1 0 0 -1 0 311.6)">
		<stop  offset="0" style="stop-color:#369039"/>
		<stop  offset="0.2051" style="stop-color:#3C9339"/>
		<stop  offset="0.4725" style="stop-color:#4C9B39"/>
		<stop  offset="0.773" style="stop-color:#67A838"/>
		<stop  offset="1" style="stop-color:#80B438"/>
	</linearGradient>
	<path class="st5" d="M109.4,164.5c0,0,44.1-27.7,121.5-30.6c0,0-0.6,25.9-12.9,45.4C218,179.4,182.7,161.3,109.4,164.5z"/>
</g>
<g id="Слой_8">
	<g>
		<path class="st6" d="M230.9,128.9c0-7.1-0.7-14-2.1-20.7c-2.2,0.9-4.5,1.4-7,1.4c-10.3,0-18.6-8.3-18.6-18.6
			c0-7.7,4.6-14.2,11.3-17.1c-7.6-11.5-17.5-21.4-29-29c-3,6.3-9.4,10.7-16.8,10.7c-10.3,0-18.6-8.3-18.6-18.6
			c0-2.2,0.4-4.3,1.1-6.3c-6.6-1.4-13.4-2.1-20.4-2.1c-7.2,0-14.3,0.8-21.1,2.2c0.7,1.9,1,4,1,6.1c0,10.3-8.3,18.6-18.6,18.6
			c-7.3,0-13.6-4.2-16.7-10.3c-11.5,7.6-21.3,17.5-28.8,29.1c6,3.1,10.2,9.3,10.2,16.6c0,10.3-8.3,18.6-18.6,18.6
			c-2,0-3.8-0.3-5.6-0.9c-1.3,6.5-2,13.3-2,20.2c0,0.9,0,1.7,0,2.6c1.1,0,31.4,0.2,46.3,4.4v-0.5c-0.3-2.1-0.4-4.3-0.4-6.5
			c0-30,24.3-54.3,54.3-54.3s54.3,24.3,54.3,54.3c0,2.1-0.2,4.5-0.4,6.5c10.8-1.7,20.3-3.2,46.3-4.5
			C230.9,130,230.9,129.7,230.9,128.9z"/>
		
			<linearGradient id="SVGID_6_" gradientUnits="userSpaceOnUse" x1="130.8" y1="175.8" x2="130.8" y2="283.0001" gradientTransform="matrix(1 0 0 -1 0 311.6)">
			<stop  offset="0" style="stop-color:#0E0E0E"/>
			<stop  offset="0.5" style="stop-color:#000000"/>
			<stop  offset="0.5213" style="stop-color:#010101"/>
			<stop  offset="0.7262" style="stop-color:#0B0B0B"/>
			<stop  offset="1" style="stop-color:#0E0E0E"/>
		</linearGradient>
		<path class="st7" d="M230.9,128.9c0-7.1-0.7-14-2.1-20.7c-2.2,0.9-4.5,1.4-7,1.4c-10.3,0-18.6-8.3-18.6-18.6
			c0-7.7,4.6-14.2,11.3-17.1c-7.6-11.5-17.5-21.4-29-29c-3,6.3-9.4,10.7-16.8,10.7c-10.3,0-18.6-8.3-18.6-18.6
			c0-2.2,0.4-4.3,1.1-6.3c-6.6-1.4-13.4-2.1-20.4-2.1c-7.2,0-14.3,0.8-21.1,2.2c0.7,1.9,1,4,1,6.1c0,10.3-8.3,18.6-18.6,18.6
			c-7.3,0-13.6-4.2-16.7-10.3c-11.5,7.6-21.3,17.5-28.8,29.1c6,3.1,10.2,9.3,10.2,16.6c0,10.3-8.3,18.6-18.6,18.6
			c-2,0-3.8-0.3-5.6-0.9c-1.3,6.5-2,13.3-2,20.2c0,0.9,0,1.7,0,2.6c1.1,0,31.4,0.2,46.3,4.4v-0.5c-0.3-2.1-0.4-4.3-0.4-6.5
			c0-30,24.3-54.3,54.3-54.3s54.3,24.3,54.3,54.3c0,2.1-0.2,4.5-0.4,6.5c10.8-1.7,20.3-3.2,46.3-4.5
			C230.9,130,230.9,129.7,230.9,128.9z"/>
		
			<linearGradient id="SVGID_7_" gradientUnits="userSpaceOnUse" x1="125.5085" y1="282.8579" x2="131.2398" y2="173.4983" gradientTransform="matrix(1 0 0 -1 0 311.6)">
			<stop  offset="0" style="stop-color:#F15A24"/>
			<stop  offset="1" style="stop-color:#C1272D"/>
		</linearGradient>
		<path class="st8" d="M230.9,128.9c0-7.1-0.7-14-2.1-20.7c-2.2,0.9-4.5,1.4-7,1.4c-10.3,0-18.6-8.3-18.6-18.6
			c0-7.7,4.6-14.2,11.3-17.1c-7.6-11.5-17.5-21.4-29-29c-3,6.3-9.4,10.7-16.8,10.7c-10.3,0-18.6-8.3-18.6-18.6
			c0-2.2,0.4-4.3,1.1-6.3c-6.6-1.4-13.4-2.1-20.4-2.1c-7.2,0-14.3,0.8-21.1,2.2c0.7,1.9,1,4,1,6.1c0,10.3-8.3,18.6-18.6,18.6
			c-7.3,0-13.6-4.2-16.7-10.3c-11.5,7.6-21.3,17.5-28.8,29.1c6,3.1,10.2,9.3,10.2,16.6c0,10.3-8.3,18.6-18.6,18.6
			c-2,0-3.8-0.3-5.6-0.9c-1.3,6.5-2,13.3-2,20.2c0,0.9,0,1.7,0,2.6c1.1,0,31.4,0.2,46.3,4.4v-0.5c-0.3-2.1-0.4-4.3-0.4-6.5
			c0-30,24.3-54.3,54.3-54.3s54.3,24.3,54.3,54.3c0,2.1-0.2,4.5-0.4,6.5c10.8-1.7,20.3-3.2,46.3-4.5
			C230.9,130,230.9,129.7,230.9,128.9z"/>
		<path class="st9" d="M230.9,128.9c0-7.1-0.7-14-2.1-20.7c-2.2,0.9-4.5,1.4-7,1.4c-10.3,0-18.6-8.3-18.6-18.6
			c0-7.7,4.6-14.2,11.3-17.1c-7.6-11.5-17.5-21.4-29-29c-3,6.3-9.4,10.7-16.8,10.7c-10.3,0-18.6-8.3-18.6-18.6
			c0-2.2,0.4-4.3,1.1-6.3c-6.6-1.4-13.4-2.1-20.4-2.1c-7.2,0-14.3,0.8-21.1,2.2c0.7,1.9,1,4,1,6.1c0,10.3-8.3,18.6-18.6,18.6
			c-7.3,0-13.6-4.2-16.7-10.3c-11.5,7.6-21.3,17.5-28.8,29.1c6,3.1,10.2,9.3,10.2,16.6c0,10.3-8.3,18.6-18.6,18.6
			c-2,0-3.8-0.3-5.6-0.9c-1.3,6.5-2,13.3-2,20.2c0,0.9,0,1.7,0,2.6c1.1,0,31.4,0.2,46.3,4.4v-0.5c-0.3-2.1-0.4-4.3-0.4-6.5
			c0-30,24.3-54.3,54.3-54.3s54.3,24.3,54.3,54.3c0,2.1-0.2,4.5-0.4,6.5c10.8-1.7,20.3-3.2,46.3-4.5
			C230.9,130,230.9,129.7,230.9,128.9z"/>
	</g>
</g>
<g id="Слой_9">
	<path class="st10" d="M37.1,220.2c-0.6,0-1.2-0.2-1.6-0.7C12.6,195.3,0,163.5,0,130.2C0,58.4,58.4,0,130.2,0
		c33.4,0,65.1,12.6,89.3,35.5c0.9,0.8,0.9,2.2,0.1,3.1c-0.8,0.9-2.2,0.9-3.1,0.1c-23.4-22.1-54.1-34.3-86.3-34.3
		C60.8,4.4,4.4,60.8,4.4,130.2c0,32.2,12.2,62.9,34.3,86.3c0.8,0.9,0.8,2.3-0.1,3.1C38.2,220,37.6,220.2,37.1,220.2z"/>
	<path class="st11" d="M130.6,260.5c-30.7,0-60.5-10.9-83.9-30.7c-0.9-0.8-1-2.2-0.3-3.1c0.8-0.9,2.2-1,3.1-0.3
		c22.6,19.1,51.4,29.6,81.1,29.6c69.4,0,125.8-56.4,125.8-125.8c0-30.7-11.2-60.3-31.5-83.2c-0.8-0.9-0.7-2.3,0.2-3.1
		s2.3-0.7,3.1,0.2c21,23.8,32.6,54.4,32.6,86.1C260.8,202.1,202.4,260.5,130.6,260.5z"/>
</g>
<g id="Слой_10">
	<path class="st12" d="M130.6,90.5c3.5,4,11.5,13.8,15,23.4c1.7,4.5,0.9,9.3-2,13.4c-3.1,4.4-8.5,7.4-12.9,7.4
		c-4.3,0-9.2-2.8-12.4-7.1c-1.8-2.5-4.6-7.5-2.5-13.8C118.4,105.2,126.9,94.7,130.6,90.5 M130.5,87c0,0-13.4,14.6-17.2,26.1
		c-4.1,12.5,7.7,23.8,17.2,23.8s21.8-11.1,17.2-23.8C142.9,100.1,130.5,87,130.5,87L130.5,87z"/>
	<polygon class="st12" points="130.6,100.8 129.2,141.7 132.1,141.7 	"/>
	<polygon class="st12" points="130.7,125 141.7,118.2 130.6,126.1 	"/>
	<polygon class="st12" points="130.7,125 119.2,118.5 130.6,126.1 	"/>
	<polygon class="st12" points="130.6,114.9 138,110.1 130.6,114 123.3,110.1 	"/>
</g>
</svg>
