<?xml version="1.0" encoding="utf-8"?>
<!-- Generator: Adobe Illustrator 22.0.1, SVG Export Plug-In . SVG Version: 6.00 Build 0)  -->
<svg version="1.1" id="Layer_2" xmlns="http://www.w3.org/2000/svg" xmlns:xlink="http://www.w3.org/1999/xlink" x="0px" y="0px"
	 viewBox="0 0 170.2 117.1" style="enable-background:new 0 0 170.2 117.1;" xml:space="preserve">
<style type="text/css">
	.st0{fill:#3F505A;}
	.st1{fill:#FFFFFF;}
	.st2{fill:#B6C6D0;}
	.st3{fill:#314859;}
	.st4{fill:#F38843;}
</style>
<path class="st0" d="M83.7,117.1h-78c-3.2,0-5.8-2.6-5.8-5.8V5.8C0,2.6,2.6,0,5.8,0h78V117.1z"/>
<path class="st1" d="M83.2,0l81.1,0c3.2,0,5.8,2.6,5.8,5.8l0,105.5c0,3.2-2.6,5.7-5.8,5.7l-81.1,0L83.2,0z"/>
<rect x="102.3" y="18.5" class="st2" width="45.5" height="58.5"/>
<path class="st0" d="M132.5,61.3L132.5,61.3L132.5,61.3L132.5,61.3v-3.4c0.1,0,0.1-0.1,0.2-0.1c1.9-0.9,3.9-3.4,4.4-9.4l0,0
	c0,0,0.4-2.7,1.8-4.8c0.3-0.5,0.5-1.1,0.5-1.8v-6.9c0,0-0.4-3.4-3.7-4.2c0,0,1.3-2.9-2.1-3.5h-12.9c-4.7,0-8.5,3.8-8.5,8.5v5
	c0,1.1,0.4,2.2,1.1,3c0.5,0.7,1.1,1.7,1.2,3.3v0v1.5c0,0,0.1,6.5,4.5,9.4c0,0,0.1,0,0.1,0.1l0,0v3.3l0,0l0,0l0,0L103.2,67
	c-0.3,0.1-0.6,0.3-0.9,0.4V77h45.5V66.8L132.5,61.3z"/>
<polygon class="st3" points="125.6,68 125.6,68 125.6,68 "/>
<polygon class="st3" points="123.4,71 123.3,71.1 123.3,71.2 "/>
<path class="st0" d="M146.5,88.2h-42.5c-1,0-1.9-0.8-1.9-1.9v0c0-1,0.8-1.9,1.9-1.9h42.5c1,0,1.9,0.8,1.9,1.9v0
	C148.3,87.4,147.5,88.2,146.5,88.2z"/>
<path class="st0" d="M146.5,97.1h-42.5c-1,0-1.9-0.8-1.9-1.9v0c0-1,0.8-1.9,1.9-1.9h42.5c1,0,1.9,0.8,1.9,1.9v0
	C148.3,96.2,147.5,97.1,146.5,97.1z"/>
<path class="st0" d="M146.5,105.4h-42.5c-1,0-1.9-0.8-1.9-1.9l0,0c0-1,0.8-1.9,1.9-1.9h42.5c1,0,1.9,0.8,1.9,1.9l0,0
	C148.3,104.5,147.5,105.4,146.5,105.4z"/>
<polygon class="st4" points="125.4,63.7 128.6,66.9 127.3,70.2 129.6,77.1 121.6,77.1 123.8,70.3 122.5,67 "/>
</svg>
