<?xml version="1.0" encoding="utf-8"?>
<!-- Generator: Adobe Illustrator 22.0.1, SVG Export Plug-In . SVG Version: 6.00 Build 0)  -->
<svg version="1.1" id="Layer_3" xmlns="http://www.w3.org/2000/svg" xmlns:xlink="http://www.w3.org/1999/xlink" x="0px" y="0px"
	 viewBox="0 0 117.5 117.1" style="enable-background:new 0 0 117.5 117.1;" xml:space="preserve">
<style type="text/css">
	.st0{fill:#3F505A;}
	.st1{fill:#FFFFFF;}
	.st2{fill:#B7C7D2;}
</style>
<path class="st0" d="M17.9,117.1H0V30.9C0,26,4,22,8.9,22h0c4.9,0,8.9,4,8.9,8.9V117.1z"/>
<path class="st0" d="M51.1,117.1H33.2V55.9c0-4.9,4-8.9,8.9-8.9h0c4.9,0,8.9,4,8.9,8.9V117.1z"/>
<path class="st0" d="M84.8,117.1H67V88.8c0-4.9,4-8.9,8.9-8.9h0c4.9,0,8.9,4,8.9,8.9V117.1z"/>
<path class="st0" d="M117.4,117.1H99.6v-14c0-4.9,4-8.9,8.9-8.9h0c4.9,0,8.9,4,8.9,8.9V117.1z"/>
<path class="st1" d="M117.1,49.5l-3.6-11.9c-0.6-2-3.2-2.5-4.5-0.9l-2.3,2.8L69.5,11c-1.3-1-3.2-0.8-4.2,0.5L51.4,28.8L12.8,0.6
	c-1.3-1-3.2-0.7-4.2,0.6c-1,1.3-0.7,3.2,0.6,4.2l41,29.9c1.3,1,3.1,0.7,4.1-0.5l13.8-17.2l34.7,26.7l-2.3,2.8
	c-1.3,1.6-0.3,3.9,1.7,4.2l12.1,1.6C116.2,53.1,117.7,51.3,117.1,49.5z"/>
<ellipse class="st1" cx="75.5" cy="55.4" rx="17.9" ry="17.7"/>
<g>
	<path class="st2" d="M65.3,54.9c-0.9-1-1.4-2.3-1.4-4c0-1.1,0.2-2.1,0.6-2.9c0.4-0.8,1-1.4,1.8-1.9c0.8-0.4,1.6-0.7,2.6-0.7
		c1.5,0,2.7,0.5,3.7,1.5c0.9,1,1.4,2.3,1.4,4c0,1.7-0.5,3-1.4,4c-0.9,1-2.2,1.5-3.7,1.5C67.4,56.3,66.2,55.8,65.3,54.9z M80.6,45.7
		h4.1L71.2,65.3h-4.1L80.6,45.7z M70.1,53c0.3-0.4,0.5-1.1,0.5-2.1c0-1-0.2-1.6-0.5-2.1c-0.3-0.4-0.7-0.7-1.2-0.7
		c-0.5,0-0.9,0.2-1.2,0.7c-0.3,0.5-0.5,1.2-0.5,2.1c0,0.9,0.2,1.6,0.5,2.1s0.7,0.7,1.2,0.7C69.4,53.7,69.8,53.4,70.1,53z M79.2,64.1
		c-0.9-1-1.4-2.3-1.4-4c0-1.7,0.5-3,1.4-4c0.9-1,2.2-1.5,3.6-1.5c1.5,0,2.7,0.5,3.7,1.5c0.9,1,1.4,2.3,1.4,4c0,1.7-0.5,3-1.4,4
		c-0.9,1-2.2,1.5-3.7,1.5C81.3,65.5,80.1,65,79.2,64.1z M84,62.2c0.3-0.4,0.5-1.1,0.5-2.1c0-0.9-0.2-1.6-0.5-2.1
		c-0.3-0.4-0.7-0.7-1.2-0.7c-0.5,0-0.9,0.2-1.2,0.7c-0.3,0.4-0.5,1.1-0.5,2.1c0,1,0.2,1.6,0.5,2.1c0.3,0.4,0.7,0.7,1.2,0.7
		C83.3,62.9,83.7,62.6,84,62.2z"/>
</g>
</svg>
