<?xml version="1.0" encoding="utf-8"?>
<!-- Generator: Adobe Illustrator 22.0.1, SVG Export Plug-In . SVG Version: 6.00 Build 0)  -->
<svg version="1.1" id="Layer_3" xmlns="http://www.w3.org/2000/svg" xmlns:xlink="http://www.w3.org/1999/xlink" x="0px" y="0px"
	 viewBox="0 0 105.7 117.1" style="enable-background:new 0 0 105.7 117.1;" xml:space="preserve">
<style type="text/css">
	.st0{fill:#3F505A;}
	.st1{fill:#B7C7D2;}
	.st2{fill:#FFFFFF;}
</style>
<path class="st0" d="M105.7,117.1H0V13.2c0-4,3.3-7.3,7.3-7.3h91.1c4,0,7.3,3.3,7.3,7.3V117.1z"/>
<path class="st1" d="M105.7,108.3H0V13.2c0-4,3.3-7.3,7.3-7.3h91.1c4,0,7.3,3.3,7.3,7.3V108.3z"/>
<path class="st2" d="M84.5,99.9H0V14.7C0,9.9,4,5.9,8.8,5.9h88.2c4.8,0,8.8,3.9,8.8,8.8v64.1L84.5,99.9z"/>
<path class="st0" d="M105.7,36.4H0V13.2c0-4,3.3-7.3,7.3-7.3h91.1c4,0,7.3,3.3,7.3,7.3V36.4z"/>
<polygon class="st0" points="84.4,78.8 105.6,78.8 84.4,100 "/>
<path class="st2" d="M22.9,24.1L22.9,24.1c-1.5,0-2.7-1.2-2.7-2.7V2.8c0-1.5,1.2-2.7,2.7-2.7h0c1.5,0,2.7,1.2,2.7,2.7v18.6
	C25.6,22.9,24.4,24.1,22.9,24.1z"/>
<path class="st2" d="M82.8,24.1L82.8,24.1c-1.5,0-2.7-1.2-2.7-2.7V2.8c0-1.5,1.2-2.7,2.7-2.7h0c1.5,0,2.7,1.2,2.7,2.7v18.6
	C85.5,22.9,84.3,24.1,82.8,24.1z"/>
<g>
	<path class="st0" d="M50.4,71.3h-7.3v7.2h-6.7v-7.2H29v-6.3h7.4v-7.2h6.7v7.2h7.3V71.3z"/>
	<path class="st0" d="M74.9,68.2c1.3,1.5,2,3.4,2,5.6c0,1.8-0.5,3.5-1.5,5c-1,1.5-2.4,2.8-4.4,3.7c-2,0.9-4.4,1.4-7.4,1.4
		c-2.1,0-4.3-0.3-6.4-0.8c-2.1-0.5-3.9-1.3-5.4-2.2l3.1-6.5c1.2,0.8,2.5,1.4,4,1.9c1.5,0.4,3,0.7,4.4,0.7c1.5,0,2.6-0.3,3.5-0.8
		c0.9-0.5,1.3-1.3,1.3-2.3c0-2-1.5-3-4.6-3H60v-5.4l5.4-5.9h-12v-6.6h22v5.4l-6.3,6.8C71.6,65.6,73.6,66.6,74.9,68.2z"/>
</g>
</svg>
