<?xml version="1.0" encoding="utf-8"?>
<!-- Generator: Adobe Illustrator 22.0.1, SVG Export Plug-In . SVG Version: 6.00 Build 0)  -->
<svg version="1.1" id="Layer_3" xmlns="http://www.w3.org/2000/svg" xmlns:xlink="http://www.w3.org/1999/xlink" x="0px" y="0px"
	 viewBox="0 0 114.7 117.1" style="enable-background:new 0 0 114.7 117.1;" xml:space="preserve">
<style type="text/css">
	.st0{fill:#3F505A;}
	.st1{fill:#FFFFFF;}
	.st2{fill:#B7C7D2;}
</style>
<path class="st0" d="M109.1,50.6H6.8c-1.1,0-1.9,0.9-1.9,1.9v56.4c0,3.2,2.6,5.8,5.8,5.8h94.7c3.2,0,5.8-2.6,5.8-5.8V52.5
	C111.1,51.5,110.2,50.6,109.1,50.6z"/>
<path class="st1" d="M67.9,50.6H48c-1.1,0-1.9,0.9-1.9,1.9v62.6c0,1.1,0.9,1.9,1.9,1.9h19.8c1.1,0,1.9-0.9,1.9-1.9V52.5
	C69.8,51.5,68.9,50.6,67.9,50.6z"/>
<path class="st1" d="M105.3,14.7c-1.9-5-4.9-9.8-8-13c-1.1-1.2-2.7-1.7-4.5-1.7C87,0.2,77.5,7.5,64.6,21.8c-0.3,0.4-0.5,0.8-0.5,1.3
	v10.3c0,1.1,0.9,1.9,1.9,1.9h29.9c6.7,0,9.4-3.2,10.5-6C108,25.8,107.6,20.6,105.3,14.7z"/>
<path class="st0" d="M106.5,18.1c-0.1-0.2-0.1-0.4-0.3-0.6c-2.9-4.4-9.3-2.8-14.1-0.6c-13.9,6.3-19.7,15-19.9,15.4
	c-0.4,0.6-0.4,1.4-0.1,2s1,1,1.7,1h22.1c4.2,0,7.4-1.3,9.3-3.9C107.6,28.4,108,23.8,106.5,18.1z"/>
<path class="st1" d="M51.3,21.8C38.4,7.5,28.9,0.2,23,0.1c-1.8,0-3.3,0.5-4.5,1.7c-3.1,3.2-6.1,8-8,13c-2.2,5.8-2.6,11-1.1,14.6
	c1.1,2.7,3.9,6,10.5,6h29.9c1.1,0,1.9-0.9,1.9-1.9V23.1C51.8,22.6,51.6,22.2,51.3,21.8z"/>
<path class="st0" d="M43.7,32.3c-0.2-0.4-6-9.1-19.9-15.4c-4.8-2.2-11.1-3.8-14.1,0.6c-0.1,0.2-0.2,0.4-0.3,0.6
	c-1.5,5.7-1.1,10.3,1.2,13.3c2,2.6,5.1,3.9,9.3,3.9h22.1c0.7,0,1.4-0.4,1.7-1C44.1,33.7,44.1,32.9,43.7,32.3z"/>
<path class="st1" d="M66.1,19.3H49.8c-1.1,0-1.9,0.9-1.9,1.9v12.2c0,1.1,0.9,1.9,1.9,1.9h16.3c1.1,0,1.9-0.9,1.9-1.9V21.2
	C68,20.1,67.1,19.3,66.1,19.3z"/>
<path class="st2" d="M109.9,31.4H4.8c-2.6,0-4.7,2.1-4.7,4.7v13.6c0,2.6,2.1,4.7,4.7,4.7h105.1c2.6,0,4.7-2.1,4.7-4.7V36.2
	C114.6,33.6,112.5,31.4,109.9,31.4z"/>
<rect x="43" y="31.4" class="st1" width="29.8" height="23"/>
<circle class="st2" cx="57.3" cy="82.7" r="22"/>
<g>
	<path class="st0" d="M45.3,82.4c-1.1-1.1-1.6-2.6-1.6-4.6c0-1.3,0.2-2.4,0.7-3.3c0.5-0.9,1.2-1.7,2-2.2c0.9-0.5,1.9-0.8,3-0.8
		c1.7,0,3.1,0.6,4.2,1.7c1.1,1.1,1.6,2.6,1.6,4.5c0,1.9-0.5,3.4-1.6,4.6c-1.1,1.1-2.5,1.7-4.2,1.7C47.7,84.1,46.3,83.5,45.3,82.4z
		 M62.7,71.9h4.6L52,94.4h-4.6L62.7,71.9z M50.8,80.3c0.3-0.5,0.5-1.3,0.5-2.4c0-1.1-0.2-1.9-0.5-2.4c-0.3-0.5-0.8-0.8-1.4-0.8
		c-0.6,0-1,0.3-1.4,0.8c-0.4,0.5-0.5,1.3-0.5,2.4c0,1.1,0.2,1.9,0.5,2.4c0.4,0.5,0.8,0.8,1.4,0.8C50,81,50.4,80.8,50.8,80.3z
		 M61.1,93c-1.1-1.1-1.6-2.6-1.6-4.6c0-1.9,0.5-3.4,1.6-4.5c1.1-1.1,2.5-1.7,4.1-1.7c1.7,0,3.1,0.6,4.2,1.7c1.1,1.1,1.6,2.6,1.6,4.5
		c0,1.9-0.5,3.4-1.6,4.6c-1.1,1.1-2.5,1.7-4.2,1.7C63.5,94.7,62.2,94.1,61.1,93z M66.6,90.9c0.3-0.5,0.5-1.3,0.5-2.4
		c0-1.1-0.2-1.9-0.5-2.4c-0.3-0.5-0.8-0.8-1.4-0.8c-0.6,0-1,0.3-1.4,0.8s-0.5,1.3-0.5,2.4c0,1.1,0.2,1.9,0.5,2.4s0.8,0.8,1.4,0.8
		C65.8,91.6,66.3,91.4,66.6,90.9z"/>
</g>
</svg>
