<?xml version="1.0" encoding="utf-8"?>
<!-- Generator: Adobe Illustrator 22.0.1, SVG Export Plug-In . SVG Version: 6.00 Build 0)  -->
<svg version="1.1" xmlns="http://www.w3.org/2000/svg" xmlns:xlink="http://www.w3.org/1999/xlink" x="0px" y="0px"
	 viewBox="0 0 191.2 159.9" style="enable-background:new 0 0 191.2 159.9;" xml:space="preserve">
<style type="text/css">
	.st0{fill:#F38843;}
	.st1{fill:#FFFFFF;}
	.st2{fill:#3F505A;}
</style>
<g id="Layer_3">
	<path class="st0" d="M30.6,0.2L0,160h160.3L191.2,0.1C191.2,0.1,29.8,0.2,30.6,0.2z"/>
</g>
<g id="Layer_4">
	<g>
		<circle class="st1" cx="94.2" cy="79.6" r="53.3"/>
	</g>
	<g>
		<g>
			<polygon class="st0" points="104.5,42.8 65.8,84.9 91.2,84.9 84.7,119.1 122.5,79.4 95.5,79.4 			"/>
		</g>
	</g>
	<path class="st2" d="M155.2,67.2c-0.7-0.9-1.8-1.3-2.9-1.2l-3.7,0.6l-0.1-0.3c-6.1-25.2-28.5-42.9-54.5-42.9
		c-30.9,0-56.1,25.2-56.1,56.1c0,31,25.2,56.1,56.1,56.1c20,0,38.6-10.8,48.6-28.1c0.3-0.6,0.4-1.2,0.3-1.9
		c-0.2-0.6-0.6-1.2-1.2-1.5c-0.6-0.3-1.3-0.4-1.9-0.3c-0.6,0.2-1.2,0.6-1.5,1.2c-9.1,15.8-26.1,25.6-44.3,25.6
		c-28.2,0-51.1-22.9-51.1-51.1c0-28.2,22.9-51.1,51.1-51.1c23.1,0,44,16.3,49.6,38.8l0,0.1l-3.9,0.6c-1.1,0.2-2,0.9-2.4,2
		c-0.4,1.1-0.2,2.2,0.6,3l7.6,8.7c0.6,0.7,1.4,1,2.3,1c0.1,0,0.3,0,0.4,0c1-0.1,1.9-0.8,2.3-1.7l5-10.8
		C156,69.3,155.9,68.1,155.2,67.2z"/>
</g>
</svg>
