<?xml version="1.0" encoding="utf-8"?>
<!-- Generator: Adobe Illustrator 22.0.1, SVG Export Plug-In . SVG Version: 6.00 Build 0)  -->
<svg version="1.1" xmlns="http://www.w3.org/2000/svg" xmlns:xlink="http://www.w3.org/1999/xlink" x="0px" y="0px"
	 viewBox="0 0 191.2 159.9" style="enable-background:new 0 0 191.2 159.9;" xml:space="preserve">
<style type="text/css">
	.st0{fill:#F38843;}
	.st1{fill:#3F505A;}
	.st2{fill:#B7C7D2;}
	.st3{fill:#FFFFFF;}
</style>
<g id="Layer_3">
	<path class="st0" d="M30.6,0.2L0,160h160.3L191.2,0.1C191.2,0.1,29.8,0.2,30.6,0.2z"/>
</g>
<g id="Layer_5">
	<path class="st1" d="M108.2,48.7V27.2c0-2-1.6-3.7-3.7-3.7H50.1c-2,0-3.7,1.6-3.7,3.7v104.7c0,2,1.6,3.7,3.7,3.7h54.5
		c2,0,3.7-1.6,3.7-3.7v-25.3V48.7z"/>
	<g>
		<path class="st2" d="M83.7,31.6H70.3c-0.7,0-1.2-0.6-1.2-1.2v-0.1c0-0.7,0.6-1.2,1.2-1.2h13.5c0.7,0,1.2,0.6,1.2,1.2v0.1
			C85,31.1,84.4,31.6,83.7,31.6z"/>
	</g>
	<g>
		<g>
			<path class="st2" d="M81.2,127.3c0,2.5-2,4.4-4.4,4.4s-4.4-2-4.4-4.4c0-2.5,2-4.4,4.4-4.4S81.2,124.9,81.2,127.3"/>
		</g>
	</g>
	<g>
		<rect x="46.4" y="35.2" class="st3" width="61.8" height="85"/>
	</g>
	<path class="st1" d="M89.5,91.2H61.8c-0.9,0-1.7-0.8-1.7-1.7v-0.2c0-0.9,0.8-1.7,1.7-1.7h27.8c0.9,0,1.7,0.8,1.7,1.7v0.2
		C91.3,90.4,90.5,91.2,89.5,91.2z"/>
	<path class="st1" d="M89.5,99H61.8c-0.9,0-1.7-0.8-1.7-1.7V97c0-0.9,0.8-1.7,1.7-1.7h27.8c0.9,0,1.7,0.8,1.7,1.7v0.2
		C91.3,98.2,90.5,99,89.5,99z"/>
	<path class="st1" d="M89.5,106.7H61.8c-0.9,0-1.7-0.8-1.7-1.7v-0.2c0-0.9,0.8-1.7,1.7-1.7h27.8c0.9,0,1.7,0.8,1.7,1.7v0.2
		C91.3,105.9,90.5,106.7,89.5,106.7z"/>
	<circle class="st1" cx="76.9" cy="61.5" r="20.1"/>
	<g>
		<polygon class="st0" points="80.7,44.4 63.7,62.9 74.9,62.9 72.1,77.8 88.6,60.4 76.8,60.4 		"/>
	</g>
	<g>
		<g>
			<path class="st3" d="M144.8,79.4v-4.2c0-2.3-1.9-4.2-4.2-4.2H87.1c-2.3,0-4.2,1.9-4.2,4.2v4.2H144.8z"/>
		</g>
		<g>
			<path class="st3" d="M82.9,88.9V109c0,2.3,1.9,4.2,4.2,4.2h53.5c2.3,0,4.2-1.9,4.2-4.2V88.9H82.9z"/>
		</g>
	</g>
	<path class="st1" d="M119.7,99H91.9c-0.9,0-1.7-0.8-1.7-1.7V97c0-0.9,0.8-1.7,1.7-1.7h27.8c0.9,0,1.7,0.8,1.7,1.7v0.2
		C121.4,98.2,120.6,99,119.7,99z"/>
	<path class="st1" d="M119.7,106.8H91.9c-0.9,0-1.7-0.8-1.7-1.7v-0.2c0-0.9,0.8-1.7,1.7-1.7h27.8c0.9,0,1.7,0.8,1.7,1.7v0.2
		C121.4,106,120.6,106.8,119.7,106.8z"/>
	<rect x="82.9" y="79.1" class="st1" width="61.9" height="11.1"/>
	<path class="st2" d="M135.1,106.8h-6.7c-1.3,0-2.4-1.1-2.4-2.4v-6.7c0-1.3,1.1-2.4,2.4-2.4h6.7c1.3,0,2.4,1.1,2.4,2.4v6.7
		C137.5,105.7,136.5,106.8,135.1,106.8z"/>
</g>
</svg>
