<?xml version="1.0" encoding="utf-8"?>
<!-- Generator: Adobe Illustrator 22.0.1, SVG Export Plug-In . SVG Version: 6.00 Build 0)  -->
<svg version="1.1" xmlns="http://www.w3.org/2000/svg" xmlns:xlink="http://www.w3.org/1999/xlink" x="0px" y="0px"
	 viewBox="0 0 191.2 159.9" style="enable-background:new 0 0 191.2 159.9;" xml:space="preserve">
<style type="text/css">
	.st0{fill:#F38843;}
	.st1{fill:#FFFFFF;}
	.st2{fill:#3F505A;}
</style>
<g id="Layer_3">
	<path class="st0" d="M30.6,0.2L0,160h160.3L191.2,0.1C191.2,0.1,29.8,0.2,30.6,0.2z"/>
</g>
<g id="Layer_5">
	<g>
		<path class="st1" d="M128,128.8H54.6c-3.2,0-5.8-2.6-5.8-5.8v-94c0-3.2,2.6-5.8,5.8-5.8H128c3.2,0,5.8,2.6,5.8,5.8v94
			C133.7,126.3,131.1,128.8,128,128.8z"/>
	</g>
	<path class="st0" d="M78.4,60.6H63.5c-1.4,0-2.5-1.1-2.5-2.5v-0.4c0-1.4,1.1-2.5,2.5-2.5h14.9c1.4,0,2.5,1.1,2.5,2.5v0.4
		C80.9,59.4,79.8,60.6,78.4,60.6z"/>
	<path class="st0" d="M85.8,88.6H63.5c-1.4,0-2.5-1.1-2.5-2.5v-0.4c0-1.4,1.1-2.5,2.5-2.5h22.3c1.4,0,2.5,1.1,2.5,2.5v0.4
		C88.3,87.4,87.2,88.6,85.8,88.6z"/>
	<path class="st0" d="M118.8,88.6H97c-1.4,0-2.5-1.1-2.5-2.5v-0.4c0-1.4,1.1-2.5,2.5-2.5h21.8c1.4,0,2.5,1.1,2.5,2.5v0.4
		C121.3,87.4,120.2,88.6,118.8,88.6z"/>
	<path class="st2" d="M77.1,102H63.5c-1.4,0-2.5-1.1-2.5-2.5v-0.4c0-1.4,1.1-2.5,2.5-2.5h13.6c1.4,0,2.5,1.1,2.5,2.5v0.4
		C79.6,100.9,78.5,102,77.1,102z"/>
	<path class="st2" d="M119.1,45.2H63.5c-1.4,0-2.5-1.1-2.5-2.5v-0.4c0-1.4,1.1-2.5,2.5-2.5h55.6c1.4,0,2.5,1.1,2.5,2.5v0.4
		C121.6,44,120.5,45.2,119.1,45.2z"/>
	<path class="st2" d="M85.9,114.8H63.5c-1.4,0-2.5-1.1-2.5-2.5v-0.3c0-1.4,1.1-2.5,2.5-2.5h22.4c1.4,0,2.5,1.1,2.5,2.5v0.3
		C88.4,113.7,87.3,114.8,85.9,114.8z"/>
	<path class="st0" d="M119.1,74.8H63.5c-1.4,0-2.5-1.1-2.5-2.5V72c0-1.4,1.1-2.5,2.5-2.5h55.6c1.4,0,2.5,1.1,2.5,2.5v0.4
		C121.6,73.7,120.5,74.8,119.1,74.8z"/>
	<ellipse class="st1" cx="111.3" cy="80.5" rx="27.8" ry="28.2"/>
	<path class="st0" d="M104.2,63.8H88.6v9.2h15.6c2.5,0,4.6-2.1,4.6-4.6C108.8,65.9,106.7,63.8,104.2,63.8z"/>
	<path class="st0" d="M123,85.5H85.8v9.2H123c2.5,0,4.6-2.1,4.6-4.6C127.6,87.5,125.6,85.5,123,85.5z"/>
	<path class="st0" d="M119.8,73.1h16.1l0-9.2l-16.1,0c-2.5,0-4.6,2.1-4.6,4.6C115.2,71,117.3,73.1,119.8,73.1z"/>
	<g>
		<path class="st2" d="M111.3,112.9c-17.7,0-32-14.5-32-32.4S93.6,48,111.3,48s32,14.5,32,32.4S128.9,112.9,111.3,112.9z
			 M111.3,56.6c-13,0-23.6,10.7-23.6,23.9s10.6,23.9,23.6,23.9s23.6-10.7,23.6-23.9S124.3,56.6,111.3,56.6z"/>
	</g>
	<path class="st2" d="M132,134.9L132,134.9c-3.2,1.2-6.8-0.5-8-3.7l-6.6-16.9l-2.1-5.4l11.6-4.3l8.8,22.4
		C136.9,130.1,135.3,133.7,132,134.9z"/>
</g>
</svg>
