<svg version="1.1" id="Layer_2" xmlns="http://www.w3.org/2000/svg" x="0" y="0" viewBox="0 0 214.4 65.2" xml:space="preserve">
    <style>
        .st0{fill:#f38843}.st1{fill:#3f505a}
    </style>
    <path class="st0" d="M119.4 5.2H130l1-5h-15.7l-3.1 17.2h5.1l.9-5.4h10.3l1-4.9h-10.4zM137.9.2h-5.1l-3 17.2H145l.9-4.9h-10.2zM158.8.2l-12 17.2h5.9L155 14h7.3l1.1 3.4h5.4L163 .2h-4.2zm1.9 9.2H158l2-3 .7 3zM209.2.1l-1.1 6h-8.4l1.1-6h-5l-3.1 17.3h5l1.1-6.3h8.4l-1.1 6.3h5.1L214.3.1zM179.5 5H191.8l1.1-4.8H179.7c-1.9 0-3.4.4-4.6 1.3-1.2.9-2 2.3-2.3 4.1-.1.5-.1 1-.1 1.4 0 1.4.6 2.6 1.7 3.3.9.6 2.2.9 4 .9h6.8c.6 0 .7.3.8.3.1.3 0 .7-.1.8-.2.1-.4.2-1.1.2h-12.4l-.1.6c-.2 1.2-.5 2.5-.8 3.5l-.2.9h13c2 0 3.5-.4 4.6-1.2 1.1-.8 1.9-2.2 2.3-4.1l.1-.6v-.9c0-1.6-.7-2.8-2-3.6-.9-.5-1.9-.5-3.3-.5h-7c-.9 0-1.3-.3-1.3-.4-.1-.7.1-.8.2-.9.3-.3.4-.3 1.6-.3z"/>
    <g>
        <path class="st1" d="M74.2 21.7L44 65.2h14.1l6.1-9h20.4l3 9H100L85.3 21.7H74.2zm6.6 23.7H70.3l7.1-10.8 3.4 10.8zM198.9 21.7l-2.8 15.5h-24l2.8-15.5h-11.4l-7.8 43.5h11.4l3-16.7h24l-3 16.7h11.4l7.8-43.5zM150 40c-2.5-1.5-5.9-2.3-10.6-2.3h-17.1c-.9 0-1.6-.3-2-1-.4-.7-.4-1.7 0-2.5.3-.6.9-1 1.6-1h.1c.3-.1.6-.1 2.9-.1h31.9l2.4-11.5h-33.7c-4.7 0-8.5 1.1-11.2 3.1-2.7 2.1-4.7 5.9-5.5 10.7-.2 1.3-.4 2.4-.4 3.5 0 3.4 1.5 6.2 4.1 8 2.2 1.5 5.5 2.2 9.9 2.2h17.4c2.1 0 2.8.9 3 1.4.3.9 0 1.8-.5 2.3-.7.7-2.1.8-4.5.8h-31.3l-3.7 11.5h34.6c4.9 0 8.6-1 11.3-3 2.7-2.1 4.6-5.5 5.6-10.2l.1-.4c.2-.8.4-1.8.3-2.9-.1-3.7-1.8-6.7-4.7-8.6zM19.2 53.2c-2.2 0 .1-5.3.5-7.4l-5.3-6.5c.7-3.7 1.7-4.6 1.9-4.8.3-.2 1.4-.9 4.8-.9h26.6l2.2-11.9H21.6c-5.6 0-10 1.3-13.1 3.9-3 2.6-5 6.6-6.1 12.2l-1.8 10c-.2 1-.3 1.8-.4 2.3-.1.6-.1 1.4-.1 2.5 0 5.4 2.3 8.3 4.2 9.8 2.5 1.9 6.1 2.8 11 2.8h26.3l2.2-11.9h-24l-.6-.1z"/>
    </g>
    <g>
        <path class="st0" d="M24.4 23.4L4.2 45.5h13.3l-3.4 17.8 19.7-20.7H19.7z"/>
    </g>
</svg>
