<svg version="1.1" id="Layer_2" xmlns="http://www.w3.org/2000/svg" x="0" y="0" viewBox="0 0 196.3 60" xml:space="preserve">
    <style>
        .st0{fill:#f38843}.st1{fill:#fff}
    </style>
    <path class="st0" d="M109.4 4.7h9.7l.8-4.6h-14.3L102.7 16h4.7l.8-5h9.5l.8-4.6H109zM126.3.1h-4.7L118.8 16h14l.8-4.6h-9.3zM145.4.1l-11 15.9h5.4l2.1-3.2h6.7l1 3.2h5L149.3.1h-3.9zm1.8 8.5h-2.5l1.8-2.8.7 2.8zM191.5.1l-.9 5.4h-7.7l.9-5.4h-4.6L176.4 16h4.6l1.1-5.8h7.7l-1.1 5.8h4.6L196.2.1zM164.3 4.6H175.6l1-4.4H164.5c-1.7 0-3.2.4-4.2 1.2-1.1.8-1.8 2.1-2.1 3.7-.1.5-.1.9-.1 1.3 0 1.3.6 2.4 1.6 3.1.8.6 2.1.8 3.7.8h6.3c.6 0 .7.2.7.3.1.3 0 .7 0 .7-.2.1-.4.2-1 .2H158l-.1.6c-.2 1.1-.5 2.3-.7 3.2l-.2.8h11.9c1.8 0 3.2-.4 4.2-1.1 1-.8 1.7-2 2.1-3.7l.1-.6v-.8c0-1.4-.6-2.6-1.8-3.3-.8-.5-1.8-.5-3-.4H164c-.9 0-1.2-.3-1.2-.4-.1-.6.1-.8.2-.9.2-.3.3-.3 1.3-.3z"/>
    <g>
        <path class="st1" d="M68 19.9L40.3 60h12.9l5.6-8.3h18.7l2.7 8.3h11.3L78.1 19.9H68zm6 21.9h-9.6l6.5-9.9 3.1 9.9zM182.1 19.9l-2.5 14.3h-22l2.5-14.3h-10.4L142.5 60H153l2.7-15.3h22L175 60h10.4l7.2-40.1zM137.3 36.8c-2.3-1.4-5.4-2.1-9.7-2.1h-15.7c-.8 0-1.5-.3-1.9-.9-.4-.7-.4-1.6 0-2.3.3-.6.9-.9 1.5-.9h.1c.3 0 .6-.1 2.7-.1h29.2l2.2-10.6h-30.9c-4.3 0-7.8 1-10.3 2.9-2.5 1.9-4.3 5.4-5.1 9.9-.2 1.2-.3 2.2-.3 3.2 0 3.1 1.3 5.8 3.7 7.4 2 1.4 5 2 9.1 2h15.9c1.9 0 2.5.8 2.7 1.3.3.8 0 1.7-.5 2.1-.7.6-1.9.7-4.1.7H97.4L94.1 60h31.7c4.5 0 7.9-.9 10.3-2.8 2.5-1.9 4.2-5.1 5.1-9.4l.1-.3c.1-.7.3-1.6.3-2.6-.1-3.6-1.6-6.4-4.3-8.1zM17.6 49c-2 0 .1-4.9.4-6.8l-4.9-5.9c.7-3.4 1.5-4.3 1.7-4.4.2-.2 1.3-.8 4.4-.8h24.3l2-11H19.8c-5.2 0-9.2 1.2-12 3.6-2.8 2.3-4.6 6-5.6 11.1L.5 44c-.2.9-.3 1.6-.3 2.1-.1.6-.1 1.3-.1 2.3 0 5 2.1 7.7 3.9 9C6.2 59.1 9.5 60 14 60h24l2-11H17.6z"/>
    </g>
    <g>
        <path class="st0" d="M22.4 21.5L3.8 41.8H16l-3.1 16.5L31 39.2H18.1z"/>
    </g>
</svg>
