<?xml version="1.0" encoding="utf-8"?>
<!-- Generator: Adobe Illustrator 22.0.1, SVG Export Plug-In . SVG Version: 6.00 Build 0)  -->
<svg version="1.1" id="Layer_3" xmlns="http://www.w3.org/2000/svg" xmlns:xlink="http://www.w3.org/1999/xlink" x="0px" y="0px"
	 viewBox="0 0 79.6 101.1" style="enable-background:new 0 0 79.6 101.1;" xml:space="preserve">
<style type="text/css">
	.st0{fill:#3F505A;}
	.st1{fill:#FFFFFF;}
	.st2{fill:#F38843;}
</style>
<path class="st0" d="M79.4,18.3c0-2.1-1.5-3.6-3.4-3.6c-14.1,0-24.9-4.3-33.8-13.6c-1.4-1.3-3.4-1.3-4.7,0
	c-8.9,9.3-19.7,13.6-33.8,13.6c-1.9,0-3.4,1.6-3.4,3.6c0,2.5,0,5.1-0.1,7.7C-0.3,51.4-1,86.2,38.7,100.8l1.1,0.2l1.1-0.2
	C80.5,86.2,80,51.5,79.5,26C79.4,23.4,79.4,20.8,79.4,18.3z"/>
<rect x="12.8" y="38.3" class="st1" width="54.2" height="9.4"/>
<g>
	<path class="st2" d="M67.1,38.6v-3.5c0-1.9-1.7-3.5-3.7-3.5H16.5c-2,0-3.7,1.6-3.7,3.5v3.5H67.1z"/>
	<path class="st2" d="M12.8,46.6v16.9c0,1.9,1.7,3.5,3.7,3.5h46.9c2,0,3.7-1.6,3.7-3.5V46.6H12.8z"/>
</g>
<g>
	<path class="st1" d="M45.1,55H20.8c-0.8,0-1.5-0.7-1.5-1.5v0c0-0.8,0.7-1.5,1.5-1.5h24.3c0.8,0,1.5,0.7,1.5,1.5v0
		C46.6,54.3,45.9,55,45.1,55z"/>
</g>
<g>
	<path class="st1" d="M45.1,61.6H20.8c-0.8,0-1.5-0.7-1.5-1.5v0c0-0.8,0.7-1.5,1.5-1.5h24.3c0.8,0,1.5,0.7,1.5,1.5v0
		C46.6,60.9,45.9,61.6,45.1,61.6z"/>
</g>
<g>
	<path class="st1" d="M58.7,61.6h-5.9c-1.2,0-2.1-0.9-2.1-2.1V54c0-1.2,0.9-2.1,2.1-2.1h5.9c1.2,0,2.1,0.9,2.1,2.1v5.5
		C60.7,60.6,59.8,61.6,58.7,61.6z"/>
</g>
</svg>
