<?xml version="1.0" encoding="utf-8"?>
<!-- Generator: Adobe Illustrator 22.0.1, SVG Export Plug-In . SVG Version: 6.00 Build 0)  -->
<svg version="1.1" id="Layer_3" xmlns="http://www.w3.org/2000/svg" xmlns:xlink="http://www.w3.org/1999/xlink" x="0px" y="0px"
	 viewBox="0 0 79.6 101.1" style="enable-background:new 0 0 79.6 101.1;" xml:space="preserve">
<style type="text/css">
	.st0{fill:#3F505A;}
	.st1{fill:#F38843;}
	.st2{fill:#FFFFFF;}
</style>
<path class="st0" d="M73.8,101H5.9c-3.2,0-5.8-2.6-5.8-5.8V5.8c0-3.2,2.6-5.8,5.8-5.8h67.9c3.2,0,5.8,2.6,5.8,5.8v89.4
	C79.6,98.4,77,101,73.8,101z"/>
<path class="st1" d="M66.7,25.4H12.9c-1.5,0-2.7-1.2-2.7-2.7v0c0-1.5,1.2-2.7,2.7-2.7h53.8c1.5,0,2.7,1.2,2.7,2.7v0
	C69.4,24.2,68.2,25.4,66.7,25.4z"/>
<path class="st2" d="M66.7,39.1H28.9c-1.5,0-2.7-1.2-2.7-2.7v0c0-1.5,1.2-2.7,2.7-2.7h37.8c1.5,0,2.7,1.2,2.7,2.7v0
	C69.4,37.9,68.2,39.1,66.7,39.1z"/>
<path class="st2" d="M66.7,53.1H12.9c-1.5,0-2.7-1.2-2.7-2.7v0c0-1.5,1.2-2.7,2.7-2.7h53.8c1.5,0,2.7,1.2,2.7,2.7v0
	C69.4,51.8,68.2,53.1,66.7,53.1z"/>
<path class="st2" d="M28.5,66.7H12.9c-1.5,0-2.7-1.2-2.7-2.7v0c0-1.5,1.2-2.7,2.7-2.7h15.6c1.5,0,2.7,1.2,2.7,2.7v0
	C31.3,65.5,30,66.7,28.5,66.7z"/>
<path class="st2" d="M28.5,81H12.9c-1.5,0-2.7-1.2-2.7-2.7v0c0-1.5,1.2-2.7,2.7-2.7h15.6c1.5,0,2.7,1.2,2.7,2.7v0
	C31.3,79.8,30,81,28.5,81z"/>
<path class="st2" d="M18.6,39.1h-5.6c-1.5,0-2.7-1.2-2.7-2.7v0c0-1.5,1.2-2.7,2.7-2.7h5.6c1.5,0,2.7,1.2,2.7,2.7v0
	C21.3,37.9,20,39.1,18.6,39.1z"/>
<circle class="st1" cx="54" cy="75.6" r="6.4"/>
<g>
	<path class="st1" d="M54,89.7c-7.8,0-14.1-6.3-14.1-14.1S46.3,61.5,54,61.5s14.1,6.3,14.1,14.1S61.8,89.7,54,89.7z M54,64.5
		c-6.1,0-11.1,5-11.1,11.1s5,11.1,11.1,11.1s11.1-5,11.1-11.1S60.2,64.5,54,64.5z"/>
</g>
</svg>
